<svg xmlns="http://www.w3.org/2000/svg" viewBox="0 0 640 480">
  <rect width="640" height="480" fill="#ee1c25"/>
  <polygon fill="#ff0" points="106.67,42.67 121.04,86.89 167.53,86.89 129.92,114.22 144.28,158.44 106.67,131.11 69.05,158.44 83.42,114.22 45.80,86.89 92.30,86.89"/>
  <polygon fill="#ff0" points="195.04,53.64 205.22,41.95 197.24,28.66 211.51,34.73 221.68,23.03 220.32,38.47 234.58,44.54 219.48,48.02 218.12,63.46 210.14,50.17"/>
  <polygon fill="#ff0" points="234.88,88.35 248.80,81.52 246.60,66.18 257.40,77.30 271.31,70.48 264.07,84.18 274.86,95.31 259.59,92.65 252.34,106.35 250.15,91.01"/>
  <polygon fill="#ff0" points="235.49,143.47 250.98,142.92 255.24,128.01 260.55,142.57 276.04,142.02 263.84,151.57 269.15,166.13 256.29,157.48 244.09,167.03 248.34,152.13"/>
  <polygon fill="#ff0" points="196.67,178.67 211.18,184.14 220.86,172.04 220.14,187.52 234.64,192.99 219.70,197.09 218.98,212.57 210.46,199.63 195.51,203.72 205.19,191.62"/>
</svg>
